<?xml version="1.0" encoding="utf-8"?>
<!-- Generator: Adobe Illustrator 19.2.1, SVG Export Plug-In . SVG Version: 6.00 Build 0)  -->
<svg version="1.1" id="Layer_1" xmlns="http://www.w3.org/2000/svg" xmlns:xlink="http://www.w3.org/1999/xlink" x="0px" y="0px"
	 viewBox="0 0 346.5 346.5" style="enable-background:new 0 0 346.5 346.5;" xml:space="preserve">
<style type="text/css">
	.st0{fill:#569CB7;stroke:#2A3D47;stroke-width:3;stroke-miterlimit:10;}
	.st1{fill:#467891;stroke:#2A3D47;stroke-width:3;stroke-miterlimit:10;}
	.st2{fill:#3A586A;stroke:#2A3D47;stroke-width:3;stroke-miterlimit:10;}
	.st3{fill:#C3E1ED;stroke:#2A3D47;stroke-width:3;stroke-miterlimit:10;}
	.st4{font-family:'DiscourseMiddle-LightOutline';}
	.st5{font-size:48px;}
</style>
<title>tg-logo-one</title>
<path class="st0" d="M289.4,298.2H63.5c-6.6,0-12-5.4-12-12V60.3c0-6.6,5.4-12,12-12h225.9c6.6,0,12,5.4,12,12v225.9
	C301.4,292.8,296.1,298.2,289.4,298.2z"/>
<path class="st1" d="M181.7,5l159.7,159.7c4.7,4.7,4.7,12.3,0,17L181.7,341.5c-4.7,4.7-12.3,4.7-17,0L5,181.7
	c-4.7-4.7-4.7-12.3,0-17L164.7,5C169.4,0.3,177,0.3,181.7,5z"/>
<circle class="st2" cx="173.2" cy="185.3" r="83.1"/>
<circle class="st3" cx="173.2" cy="185.3" r="62.1"/>
<text transform="matrix(1 0 0 1 126.52 199)" class="st4 st5">T.</text>
<text transform="matrix(1 0 0 1 173.2305 198.9997)" class="st4 st5">G.</text>
</svg>
