<svg xmlns="http://www.w3.org/2000/svg" xmlns:xlink="http://www.w3.org/1999/xlink" style="enable-background:new 0 0 346.5 346.5" id="Layer_1" x="0" y="0" version="1.1" viewBox="0 0 346.5 346.5" xml:space="preserve"><style type="text/css">.st0{fill:#569cb7}.st0,.st1,.st2,.st3{stroke:#2a3d47;stroke-width:3;stroke-miterlimit:10}.st1{fill:#467891}.st2{fill:#3a586a}.st3{fill:#c3e1ed}.st4{font-family:&apos;DiscourseMiddle-LightOutline&apos;}.st5{font-size:48px}</style><title>tg-logo-one</title><path d="M289.4,298.2H63.5c-6.6,0-12-5.4-12-12V60.3c0-6.6,5.4-12,12-12h225.9c6.6,0,12,5.4,12,12v225.9	C301.4,292.8,296.1,298.2,289.4,298.2z" class="st0"/><path d="M181.7,5l159.7,159.7c4.7,4.7,4.7,12.3,0,17L181.7,341.5c-4.7,4.7-12.3,4.7-17,0L5,181.7	c-4.7-4.7-4.7-12.3,0-17L164.7,5C169.4,0.3,177,0.3,181.7,5z" class="st1"/><circle cx="173.2" cy="185.3" r="83.1" class="st2"/><circle cx="173.2" cy="185.3" r="62.1" class="st3"/><text class="st4 st5" transform="matrix(1 0 0 1 126.52 199)">T.</text><text class="st4 st5" transform="matrix(1 0 0 1 173.2305 198.9997)">G.</text></svg>